<mxfile host="app.diagrams.net" modified="2023-09-15T12:35:36.446Z" agent="Mozilla/5.0 (Windows NT 10.0; Win64; x64) AppleWebKit/537.36 (KHTML, like Gecko) Chrome/116.0.0.0 Safari/537.36 Edg/116.0.1938.81" etag="v5L7_ta7FQdKk42Rapvb" version="21.7.2" type="github">
  <diagram name="第 1 页" id="l72RWGH6nx2oZej6lHZi">
    <mxGraphModel dx="1052" dy="707" grid="1" gridSize="10" guides="1" tooltips="1" connect="1" arrows="1" fold="1" page="1" pageScale="1" pageWidth="827" pageHeight="1169" math="0" shadow="0">
      <root>
        <mxCell id="0" />
        <mxCell id="1" parent="0" />
        <mxCell id="63ZIohw8zkES0fVGynMx-1" value="" style="ellipse;html=1;shape=startState;fillColor=#000000;strokeColor=#ff0000;" parent="1" vertex="1">
          <mxGeometry x="250" y="195" width="30" height="30" as="geometry" />
        </mxCell>
        <mxCell id="63ZIohw8zkES0fVGynMx-2" value="" style="edgeStyle=orthogonalEdgeStyle;html=1;verticalAlign=bottom;endArrow=open;endSize=8;strokeColor=#ff0000;rounded=0;entryX=0;entryY=0.5;entryDx=0;entryDy=0;" parent="1" target="63ZIohw8zkES0fVGynMx-3" edge="1">
          <mxGeometry relative="1" as="geometry">
            <mxPoint x="445" y="190" as="targetPoint" />
            <mxPoint x="280" y="210" as="sourcePoint" />
            <Array as="points" />
          </mxGeometry>
        </mxCell>
        <mxCell id="63ZIohw8zkES0fVGynMx-3" value="从数据库中获取流量统计信息" style="rounded=1;whiteSpace=wrap;html=1;arcSize=40;fontColor=#000000;fillColor=#ffffc0;strokeColor=#ff0000;" parent="1" vertex="1">
          <mxGeometry x="385" y="190" width="120" height="40" as="geometry" />
        </mxCell>
        <mxCell id="63ZIohw8zkES0fVGynMx-4" value="" style="edgeStyle=orthogonalEdgeStyle;html=1;verticalAlign=bottom;endArrow=open;endSize=8;strokeColor=#ff0000;rounded=0;" parent="1" source="63ZIohw8zkES0fVGynMx-3" edge="1">
          <mxGeometry relative="1" as="geometry">
            <mxPoint x="445" y="290" as="targetPoint" />
          </mxGeometry>
        </mxCell>
        <mxCell id="63ZIohw8zkES0fVGynMx-5" value="计算用户在线时长" style="rounded=1;whiteSpace=wrap;html=1;arcSize=40;fontColor=#000000;fillColor=#ffffc0;strokeColor=#ff0000;" parent="1" vertex="1">
          <mxGeometry x="385" y="290" width="120" height="40" as="geometry" />
        </mxCell>
        <mxCell id="63ZIohw8zkES0fVGynMx-6" value="" style="edgeStyle=orthogonalEdgeStyle;html=1;verticalAlign=bottom;endArrow=open;endSize=8;strokeColor=#ff0000;rounded=0;" parent="1" source="63ZIohw8zkES0fVGynMx-5" edge="1">
          <mxGeometry relative="1" as="geometry">
            <mxPoint x="445" y="390" as="targetPoint" />
          </mxGeometry>
        </mxCell>
        <mxCell id="63ZIohw8zkES0fVGynMx-9" value="" style="rhombus;whiteSpace=wrap;html=1;fontColor=#000000;fillColor=#ffffc0;strokeColor=#ff0000;" parent="1" vertex="1">
          <mxGeometry x="405" y="390" width="80" height="40" as="geometry" />
        </mxCell>
        <mxCell id="63ZIohw8zkES0fVGynMx-10" value="发送实时计费报文" style="rounded=1;whiteSpace=wrap;html=1;arcSize=40;fontColor=#000000;fillColor=#ffffc0;strokeColor=#ff0000;" parent="1" vertex="1">
          <mxGeometry x="385" y="490" width="120" height="40" as="geometry" />
        </mxCell>
        <mxCell id="63ZIohw8zkES0fVGynMx-11" value="发送计费结束报文" style="rounded=1;whiteSpace=wrap;html=1;arcSize=40;fontColor=#000000;fillColor=#ffffc0;strokeColor=#ff0000;" parent="1" vertex="1">
          <mxGeometry x="606" y="390" width="120" height="40" as="geometry" />
        </mxCell>
        <mxCell id="63ZIohw8zkES0fVGynMx-12" value="" style="edgeStyle=orthogonalEdgeStyle;html=1;verticalAlign=bottom;endArrow=open;endSize=8;strokeColor=#ff0000;rounded=0;" parent="1" source="63ZIohw8zkES0fVGynMx-11" edge="1">
          <mxGeometry relative="1" as="geometry">
            <mxPoint x="666" y="490" as="targetPoint" />
            <Array as="points" />
          </mxGeometry>
        </mxCell>
        <mxCell id="63ZIohw8zkES0fVGynMx-13" value="" style="edgeStyle=orthogonalEdgeStyle;html=1;verticalAlign=bottom;endArrow=open;endSize=8;strokeColor=#ff0000;rounded=0;exitX=1;exitY=0.5;exitDx=0;exitDy=0;" parent="1" source="63ZIohw8zkES0fVGynMx-9" target="63ZIohw8zkES0fVGynMx-11" edge="1">
          <mxGeometry relative="1" as="geometry">
            <mxPoint x="676" y="215" as="targetPoint" />
            <mxPoint x="676" y="145" as="sourcePoint" />
          </mxGeometry>
        </mxCell>
        <mxCell id="63ZIohw8zkES0fVGynMx-14" value="判断统计数据是否超过预期" style="edgeLabel;html=1;align=center;verticalAlign=middle;resizable=0;points=[];" parent="63ZIohw8zkES0fVGynMx-13" vertex="1" connectable="0">
          <mxGeometry x="-0.1582" y="2" relative="1" as="geometry">
            <mxPoint x="-176" y="-48" as="offset" />
          </mxGeometry>
        </mxCell>
        <mxCell id="63ZIohw8zkES0fVGynMx-26" value="YES" style="edgeLabel;html=1;align=center;verticalAlign=middle;resizable=0;points=[];" parent="63ZIohw8zkES0fVGynMx-13" vertex="1" connectable="0">
          <mxGeometry x="0.0715" y="-3" relative="1" as="geometry">
            <mxPoint x="-10" y="-13" as="offset" />
          </mxGeometry>
        </mxCell>
        <mxCell id="63ZIohw8zkES0fVGynMx-20" value="" style="edgeStyle=orthogonalEdgeStyle;html=1;verticalAlign=bottom;endArrow=open;endSize=8;strokeColor=#ff0000;rounded=0;exitX=0.5;exitY=1;exitDx=0;exitDy=0;entryX=0.5;entryY=0;entryDx=0;entryDy=0;" parent="1" source="63ZIohw8zkES0fVGynMx-10" edge="1">
          <mxGeometry relative="1" as="geometry">
            <mxPoint x="445" y="575" as="targetPoint" />
            <mxPoint x="560" y="575" as="sourcePoint" />
            <Array as="points">
              <mxPoint x="445" y="565" />
              <mxPoint x="445" y="565" />
            </Array>
          </mxGeometry>
        </mxCell>
        <mxCell id="63ZIohw8zkES0fVGynMx-23" value="" style="ellipse;html=1;shape=endState;fillColor=#000000;strokeColor=#ff0000;" parent="1" vertex="1">
          <mxGeometry x="430" y="575" width="30" height="30" as="geometry" />
        </mxCell>
        <mxCell id="63ZIohw8zkES0fVGynMx-27" value="触发用户下线" style="rounded=1;whiteSpace=wrap;html=1;arcSize=40;fontColor=#000000;fillColor=#ffffc0;strokeColor=#ff0000;" parent="1" vertex="1">
          <mxGeometry x="606" y="490" width="120" height="40" as="geometry" />
        </mxCell>
        <mxCell id="63ZIohw8zkES0fVGynMx-29" value="" style="edgeStyle=orthogonalEdgeStyle;html=1;verticalAlign=bottom;endArrow=open;endSize=8;strokeColor=#ff0000;rounded=0;" parent="1" edge="1">
          <mxGeometry relative="1" as="geometry">
            <mxPoint x="444.76" y="490" as="targetPoint" />
            <Array as="points" />
            <mxPoint x="444.76" y="430" as="sourcePoint" />
          </mxGeometry>
        </mxCell>
        <mxCell id="63ZIohw8zkES0fVGynMx-30" value="" style="edgeStyle=orthogonalEdgeStyle;html=1;verticalAlign=bottom;endArrow=open;endSize=8;strokeColor=#ff0000;rounded=0;exitX=0.5;exitY=1;exitDx=0;exitDy=0;entryX=1;entryY=0.5;entryDx=0;entryDy=0;" parent="1" source="63ZIohw8zkES0fVGynMx-27" target="63ZIohw8zkES0fVGynMx-23" edge="1">
          <mxGeometry relative="1" as="geometry">
            <mxPoint x="620" y="610" as="targetPoint" />
            <Array as="points" />
            <mxPoint x="620" y="550" as="sourcePoint" />
          </mxGeometry>
        </mxCell>
        <mxCell id="6q13QAoEwkcD8Z7ZEVPH-1" value="NO" style="edgeLabel;html=1;align=center;verticalAlign=middle;resizable=0;points=[];" vertex="1" connectable="0" parent="1">
          <mxGeometry x="370" y="450" as="geometry">
            <mxPoint x="37" as="offset" />
          </mxGeometry>
        </mxCell>
      </root>
    </mxGraphModel>
  </diagram>
</mxfile>
